# xmcd
#
# Track frame offsets: 
#        188
#        10125
#        21375
#        32363
#        44213
#        57863
#        68888
#        79613
#        90638
#        101513
#        110025
#        120300
#        132338
#        144600
#        156563
#        168563
#
# Disc length: 2409 seconds
#
# Revision: 1
# Processed by: cddbd v1.5.2PL0 Copyright (c) Steve Scherf et al.
# Submitted via: ExactAudioCopy v0.99pb5
#
DISCID=db096710
DTITLE=Various Artist - The Yellow Rose Of Texas - Great Country and Western Hi
DTITLE=ts - CD 2
DYEAR=1991
DGENRE=Country
TTITLE0=Bobby Bare - West Virginia woman
TTITLE1=Freddy Quinn - Jambalaya
TTITLE2=Ferlin Husky - Wings of a dove
TTITLE3=Billy Grammer - Papa and mama
TTITLE4=Rick Johnson - I've heard those very lines before
TTITLE5=Dave Dudley - Get me back to Tennessee
TTITLE6=George Kent - I'm in a bad mood tonight
TTITLE7=Freddy Quinn - Some broken hearts never mend
TTITLE8=Bobby Bare - Puppy and the parakeet
TTITLE9=Freddy Quinn - Oh, Susanna
TTITLE10=Linda Manning - Life keeps movin' on
TTITLE11=Ferlin Husky - I could sing all night
TTITLE12=Dave Dudley - If I could change Mary's mind
TTITLE13=Al Terry - It will never rain roses
TTITLE14=Roy Baham - Linda's red dress
TTITLE15=Dave Dudley - How come it took so long (to say goodbye)
EXTD=
EXTT0=
EXTT1=
EXTT2=
EXTT3=
EXTT4=
EXTT5=
EXTT6=
EXTT7=
EXTT8=
EXTT9=
EXTT10=
EXTT11=
EXTT12=
EXTT13=
EXTT14=
EXTT15=
PLAYORDER=
